<svg xmlns="http://www.w3.org/2000/svg" viewBox="0 0 205.3 231.53"><defs><style>.cls-1{fill:white;}</style></defs><title>Recurso 31</title><g id="Capa_2" data-name="Capa 2"><g id="Capa_1-2" data-name="Capa 1"><path class="cls-1" d="M204.91,65.66a16.38,16.38,0,0,0-8.25-14.15L151.8,25.84,110.39,2.15A16.36,16.36,0,0,0,94.5,2c-.16.09-.33.15-.48.24L64.72,19.28,27.86,40.76,8.14,52.25A16.38,16.38,0,0,0,0,66.47l.39,99.39A16.52,16.52,0,0,0,8.64,180l29.67,17,39.42,22.55,17.18,9.83a16.38,16.38,0,0,0,16.38-.06l38.54-22.46,47.33-27.58A16.38,16.38,0,0,0,205.3,165Zm-19,78H171c-4.78,0-6.84-2.06-6.84-6.84V115.38c0-4.49-1.78-6.37-5.34-6.37-5.06,0-8.15,2.81-9.55,6.93a19.38,19.38,0,0,0-.94,6.37v21.35H132.1V111.07A1.87,1.87,0,0,0,130,109h-2.39c-1.12,0-1.59.28-2.06,1.5l-9.74,33.15H97.41L92,121.37a44.14,44.14,0,0,1-.94-5.15h-.19a44.14,44.14,0,0,1-.94,5.15l-5.43,22.29H65.85l-9.74-33.15a1.78,1.78,0,0,0-2.06-1.5l-10.39-.12v14.82c0,5.43,5.52,6.18,8.61,6.18,1.31,0,2.15-.09,2.15-.09v14a31.17,31.17,0,0,1-4.4.28c-7.68,0-22.57-2.06-22.57-18.26V108.07H21.28V95.43h6.65v-13H43.66v13h21c3.56,0,5.62,1.4,6.27,4.59l4.87,23.88a27.2,27.2,0,0,1,.56,5.06h.19a34.43,34.43,0,0,1,.84-5.06L84,95.62H97.88l6.65,28.28a28,28,0,0,1,.75,5.06h.19a27.2,27.2,0,0,1,.56-5.06L110.89,100c.66-3.18,2.62-4.59,6.18-4.59h23.83c4.4,0,6.74,2.15,6.74,5.43v.66a9.87,9.87,0,0,1-.09,1.12h.19c2.25-3.74,6.74-8.33,15.26-8.33,9.74,0,17.32,4.49,17.32,18.07V128a1.87,1.87,0,0,0,2.06,2.06h3.56Z"/></g></g></svg>