<?xml version="1.0" encoding="utf-8"?>
<!-- Generator: Adobe Illustrator 22.0.1, SVG Export Plug-In . SVG Version: 6.00 Build 0)  -->
<svg version="1.1" id="Capa_1" xmlns="http://www.w3.org/2000/svg" xmlns:xlink="http://www.w3.org/1999/xlink" x="0px" y="0px"
	 viewBox="0 0 710 215.2" style="enable-background:new 0 0 710 215.2;" xml:space="preserve">
<style type="text/css">
	.st0{fill:#B73077;}
	.st1{fill:#B02C6B;}
	.st2{fill:#601A3D;}
	.st3{fill:#7B204D;}
	.st4{fill:#94265B;}
	.st5{fill:#AE2C6A;}
	.st6{fill:#FFFFFF;stroke:#FFFFFF;stroke-miterlimit:10;}
</style>
<path class="st0" d="M185.1,49.7C184.5,49.2,103.1,2,103.1,2C100.7,0.6,98,0,95.3,0c-0.1,0-0.2,0-0.3,0c-0.4,0-0.7,0-1.1,0.1
	c-0.2,0-0.3,0-0.5,0C91.5,0.4,89.6,1,87.8,2L6.1,49.2c-3.9,2.3-6.3,6.4-6.3,10.9v95c0,4.5,2.4,8.7,6.3,10.9l81.7,47.2
	c1.1,0.6,3.5,1.4,3.5,1.4c3.9,1.1,8.2,0.6,11.8-1.4l80-46.2c1-0.5,1.8-1.2,2.6-1.9c3.1-2.4,5-6.1,5-10V61.4v-1.4
	C190.7,55.9,188.6,52,185.1,49.7z M46.2,26.2L46.2,26.2L46.2,26.2L46.2,26.2z"/>
<title>logo-telwinet</title>
<metadata><?xpacket begin="﻿" id="W5M0MpCehiHzreSzNTczkc9d"?>
<x:xmpmeta xmlns:x="adobe:ns:meta/" x:xmptk="Adobe XMP Core 5.6-c143 79.161210, 2017/08/11-10:28:36        ">
   <rdf:RDF xmlns:rdf="http://www.w3.org/1999/02/22-rdf-syntax-ns#">
      <rdf:Description rdf:about=""
            xmlns:dc="http://purl.org/dc/elements/1.1/">
         <dc:title>
            <rdf:Alt>
               <rdf:li xml:lang="x-default">logo-telwinet</rdf:li>
            </rdf:Alt>
         </dc:title>
      </rdf:Description>
   </rdf:RDF>
</x:xmpmeta>
                                                                                                    
                                                                                                    
                                                                                                    
                                                                                                    
                                                                                                    
                                                                                                    
                                                                                                    
                                                                                                    
                                                                                                    
                                                                                                    
                                                                                                    
                                                                                                    
                                                                                                    
                                                                                                    
                                                                                                    
                                                                                                    
                                                                                                    
                                                                                                    
                                                                                                    
                                                                                                    
                           
<?xpacket end="w"?></metadata>
<g id="Capa_2_1_">
	<g id="Capa_1-2">
		<path class="st1" d="M243.1,98.1h-3.6c-3.6,0-5.5-1.9-5.5-5.6v-2.3c0-3.6,1.9-5.6,5.6-5.6h3.9v-14c0-3.6,2-5.7,5.6-5.7h5.4
			c3.6,0,5.6,2,5.6,5.7v14h10c3.6,0,5.6,2,5.6,5.6v2.3c0,3.8-2,5.6-5.5,5.6h-10.1v26.6c0,10.2,6.3,12.2,11,12.8
			c4.2,0.4,5.6,1.8,5.6,5.5v4.2c0,4-2.3,5.6-7,5.6c-12.2,0-26.8-6.6-26.8-25.1L243.1,98.1z"/>
		<path class="st1" d="M313.7,82c19.5,0,30.4,13.8,30.4,32.7c-0.1,3.2-2.7,5.8-5.9,5.8h-41.8c1.1,12.4,10.2,18.8,20.6,18.8
			c5.2-0.1,10.4-1.6,14.8-4.4c3.4-1.6,5.8-1.2,7.5,1.9l1.6,2.7c1.6,3.1,1.1,5.8-1.9,7.5c-6.9,4.4-15,6.8-23.2,6.9
			c-22.7,0-36.8-16.4-36.8-35.9C278.9,96.8,293.1,82,313.7,82z M327.1,110.1c-0.3-9.5-6-15.2-13.8-15.2c-8.7,0-14.9,6-16.5,15.2
			H327.1z"/>
		<path class="st1" d="M353.8,62.4c0-3.6,1.9-5.7,5.5-5.7h5.9c3.6,0,5.5,2,5.5,5.7v67.1c0,6.7,2.8,7.9,5.4,8.2s4.2,1.8,4.2,4.8v4.6
			c0,3.5-1.6,5.8-5.6,5.8c-9.1,0-20.8-2.4-20.8-22L353.8,62.4z"/>
		<path class="st1" d="M380.6,89.9c-1.1-3.8,0.8-6.3,4.7-6.3h6.5c3.4,0,5.4,1.6,6,5l11,40.1c0.8,3.6,1.3,7.3,1.3,7.3h0.3
			c0,0,0.5-3.6,1.5-7.3l11.6-40.1c0.7-3.2,2.8-4.8,6.2-4.8h5.1c3.4,0,5.4,1.6,6.2,4.8l11.4,40.1c0.7,2.4,1.2,4.8,1.5,7.3h0.3
			c0,0,0.5-3.6,1.5-7.3l10.9-40.1c0.8-3.4,2.8-5,6.2-5h6.2c4,0,5.8,2.6,4.7,6.3L466,147.5c-0.6,2.9-3.3,4.9-6.3,4.7h-9
			c-3.4,0-5.5-1.6-6.3-4.8L434,113.1c-0.7-2.4-1.2-4.9-1.6-7.4h-0.3c0,0-0.7,3.8-1.8,7.4L420,147.3c-0.8,3.2-2.8,4.8-6.2,4.8h-9.3
			c-3.2,0-5.2-1.5-6.2-4.7L380.6,89.9z"/>
		<path class="st1" d="M492.5,66.4v-4c0-3.6,1.9-5.7,5.5-5.7h5.9c3.6,0,5.6,2,5.6,5.7v4c0,3.6-2,5.5-5.6,5.5H498
			C494.3,71.9,492.5,70,492.5,66.4z M492.5,89.3c0-3.6,1.9-5.6,5.5-5.6h5.9c3.6,0,5.5,2,5.5,5.6v57.2c0,3.8-1.9,5.6-5.5,5.6H498
			c-3.6,0-5.5-1.9-5.5-5.6L492.5,89.3z"/>
		<path class="st1" d="M523.8,89.3c0-3.6,1.9-5.6,5.5-5.6h5.2c3.6,0,5.5,2,5.5,5.6v4.2c0,1-0.1,2.1-0.3,3.1h0.2
			c4.7-9.1,14.1-14.7,24.3-14.5c15.2,0,23.9,7.9,23.9,26.1v38.4c0,3.8-1.9,5.6-5.6,5.6h-5.8c-3.6,0-5.6-1.9-5.6-5.6v-34.9
			c0-8.3-2.2-14-10.8-14c-12.1,0-19.8,10.1-19.8,22.4v26.5c0,3.8-1.9,5.6-5.5,5.6h-5.9c-3.6,0-5.5-1.9-5.5-5.6L523.8,89.3z"/>
		<path class="st1" d="M632.3,82c19.5,0,30.4,13.8,30.4,32.7c-0.1,3.2-2.7,5.8-5.9,5.8H615c1.1,12.4,10.2,18.8,20.6,18.8
			c5.2-0.1,10.4-1.6,14.8-4.4c3.4-1.6,5.8-1.2,7.5,1.9l1.6,2.7c1.6,3.1,1.1,5.8-1.9,7.5c-6.9,4.4-15,6.8-23.2,6.9
			c-22.7,0-36.8-16.4-36.8-35.9C597.5,96.8,611.8,82,632.3,82z M645.8,110.1c-0.3-9.5-6-15.2-13.8-15.2c-8.7,0-14.9,6-16.5,15.2
			H645.8z"/>
		<path class="st1" d="M676.3,98.1h-3.6c-3.6,0-5.5-1.9-5.5-5.6v-2.3c0-3.6,1.9-5.6,5.7-5.6h3.9v-14c0-3.6,2-5.7,5.6-5.7h5.4
			c3.6,0,5.6,2,5.6,5.7v14h10c3.6,0,5.7,2,5.7,5.6v2.3c0,3.8-2,5.6-5.5,5.6h-10.1v26.6c0,10.2,6.3,12.2,11,12.8
			c4.2,0.4,5.6,1.8,5.6,5.5v4.2c0,4-2.3,5.6-7,5.6c-12.2,0-26.8-6.6-26.8-25.1L676.3,98.1z"/>
		<path class="st0" d="M0,132.6v21.2c0,5.5,2.9,10.5,7.6,13.2l80,46.2c1.1,0.6,2.3,1.1,3.5,1.4C74.1,175.3,40.9,145.4,0,132.6z"/>
		<path class="st2" d="M190.4,112.3V61.4c0-5.4-2.9-10.5-7.6-13.2L102.8,2c-4.7-2.7-10.5-2.7-15.2,0L46,26.1c3.5-0.2,7-0.4,10.5-0.4
			C114.3,25.7,166.8,59.6,190.4,112.3z"/>
		<path class="st3" d="M0,60.9c77.5-12.3,151,38.4,166.9,115.3l15.9-9.2c4.7-2.7,7.6-7.7,7.6-13.2v-41.5
			c-23.7-52.7-76.1-86.6-133.9-86.7c-3.5,0-7,0.1-10.5,0.4L7.6,48.2C3,50.8,0.2,55.6,0,60.9z"/>
		<path class="st4" d="M23.1,59.1c-7.7,0-15.5,0.6-23.1,1.8c0,0.2,0,0.3,0,0.5v31.5c60.9,4.3,112.8,45.8,130.4,104.4l36.6-21.1
			C152.8,108,92.7,59.1,23.1,59.1z"/>
		<path class="st5" d="M102.8,213.1l27.5-15.9C112.8,138.8,60.9,97.2,0,92.9v39.7c40.8,12.8,74.1,42.7,91.1,82
			C95,215.7,99.3,215.2,102.8,213.1z"/>
		<path class="st6" d="M75.3,86.8h-4.8c-4.8,0-7.2-2.5-7.2-7.4v-3c0-4.8,2.5-7.4,7.4-7.4h5.1V50.8c0-4.8,2.6-7.4,7.4-7.4h7
			c4.8,0,7.4,2.6,7.4,7.4v18.3h13c4.8,0,7.4,2.6,7.4,7.4v3c0,4.9-2.6,7.4-7.2,7.4H97.7v34.8c0,13.4,8.3,16,14.4,16.7
			c5.4,0.5,7.4,2.3,7.4,7.2v5.4c0,5.3-3,7.4-9.2,7.4c-16,0-35-8.6-35-32.9L75.3,86.8z"/>
	</g>
</g>
</svg>
